<svg width="19" height="19" viewBox="0 0 19 19" fill="none" xmlns="http://www.w3.org/2000/svg">
<path d="M1.58398 3.64167C1.58398 3.19829 1.58398 2.9766 1.67027 2.80726C1.74617 2.6583 1.86728 2.53719 2.01624 2.46129C2.18559 2.375 2.40728 2.375 2.85065 2.375H16.1507C16.594 2.375 16.8157 2.375 16.9851 2.46129C17.134 2.53719 17.2551 2.6583 17.331 2.80726C17.4173 2.9766 17.4173 3.19829 17.4173 3.64167V4.1716C17.4173 4.3844 17.4173 4.4908 17.3913 4.58974C17.3683 4.67741 17.3303 4.76048 17.2792 4.83531C17.2214 4.91976 17.141 4.98944 16.9802 5.12881L11.9169 9.51702C11.7561 9.65639 11.6757 9.72608 11.618 9.81052C11.5668 9.88536 11.5289 9.96842 11.5058 10.0561C11.4798 10.155 11.4798 10.2614 11.4798 10.4742V14.6129C11.4798 14.7677 11.4798 14.8451 11.4548 14.912C11.4328 14.9712 11.3969 15.0242 11.3502 15.0666C11.2973 15.1147 11.2254 15.1434 11.0817 15.2009L8.39003 16.2776C8.09906 16.394 7.95357 16.4522 7.83678 16.4279C7.73465 16.4067 7.64503 16.346 7.58739 16.259C7.52148 16.1596 7.52148 16.0029 7.52148 15.6895V10.4742C7.52148 10.2614 7.52148 10.155 7.49548 10.0561C7.47244 9.96842 7.43451 9.88536 7.38335 9.81052C7.32561 9.72608 7.2452 9.65639 7.0844 9.51702L2.02107 5.12881C1.86026 4.98944 1.77986 4.91976 1.72212 4.83531C1.67096 4.76048 1.63303 4.67741 1.60999 4.58974C1.58398 4.4908 1.58398 4.3844 1.58398 4.1716V3.64167Z" fill="#99BBFF"/>
<path d="M1.58398 3.64167C1.58398 3.19829 1.58398 2.9766 1.67027 2.80726C1.74617 2.6583 1.86728 2.53719 2.01624 2.46129C2.18559 2.375 2.40728 2.375 2.85065 2.375H16.1507C16.594 2.375 16.8157 2.375 16.9851 2.46129C17.134 2.53719 17.2551 2.6583 17.331 2.80726C17.4173 2.9766 17.4173 3.19829 17.4173 3.64167V4.1716C17.4173 4.3844 17.4173 4.4908 17.3913 4.58974C17.3683 4.67741 17.3303 4.76048 17.2792 4.83531C17.2214 4.91976 17.141 4.98944 16.9802 5.12881L11.9169 9.51702C11.7561 9.65639 11.6757 9.72607 11.618 9.81052C11.5668 9.88536 11.5289 9.96842 11.5058 10.0561C11.4798 10.155 11.4798 10.2614 11.4798 10.4742V14.6129C11.4798 14.7677 11.4798 14.8451 11.4548 14.912C11.4328 14.9712 11.3969 15.0242 11.3502 15.0666C11.2973 15.1147 11.2254 15.1434 11.0817 15.2009L8.39003 16.2776C8.09906 16.394 7.95357 16.4522 7.83678 16.4279C7.73465 16.4067 7.64503 16.346 7.58739 16.259C7.52148 16.1596 7.52148 16.0029 7.52148 15.6895V10.4742C7.52148 10.2614 7.52148 10.155 7.49548 10.0561C7.47244 9.96842 7.43451 9.88536 7.38335 9.81052C7.32561 9.72607 7.2452 9.65639 7.0844 9.51702L2.02107 5.12881C1.86026 4.98944 1.77986 4.91976 1.72212 4.83531C1.67096 4.76048 1.63303 4.67741 1.60999 4.58974C1.58398 4.4908 1.58398 4.3844 1.58398 4.1716V3.64167Z" stroke="#99BBFF" stroke-width="2" stroke-linecap="round" stroke-linejoin="round"/>
</svg>
