<svg width="18" height="20" viewBox="0 0 18 20" fill="none" xmlns="http://www.w3.org/2000/svg">
<rect x="0.5" y="1" width="17" height="18" rx="3.5" fill="#4C84FF"/>
<rect x="0.5" y="1" width="17" height="18" rx="3.5" stroke="#4C84FF"/>
<path fill-rule="evenodd" clip-rule="evenodd" d="M2.85815 6.74768C2.85815 5.5505 3.82866 4.57999 5.02585 4.57999H8.63867C9.03773 4.57999 9.36123 4.90349 9.36123 5.30255C9.36123 5.70161 9.03773 6.02512 8.63867 6.02512H5.02585C4.62679 6.02512 4.30328 6.34862 4.30328 6.74768V13.9733C4.30328 14.3724 4.62679 14.6959 5.02585 14.6959H12.2515C12.6506 14.6959 12.9741 14.3724 12.9741 13.9733V10.3605C12.9741 9.96144 13.2976 9.63794 13.6966 9.63794C14.0957 9.63794 14.4192 9.96144 14.4192 10.3605V13.9733C14.4192 15.1705 13.4487 16.141 12.2515 16.141H5.02585C3.82866 16.141 2.85815 15.1705 2.85815 13.9733V6.74768Z" fill="white"/>
<path fill-rule="evenodd" clip-rule="evenodd" d="M14.7185 4.28069C15.2828 4.84505 15.2828 5.76005 14.7185 6.32441L9.66053 11.3824C9.09617 11.9467 8.18117 11.9467 7.61681 11.3824C7.05245 10.818 7.05245 9.903 7.61681 9.33864L12.6748 4.28069C13.2391 3.71633 14.1541 3.71633 14.7185 4.28069Z" fill="white"/>
<path d="M7.19354 11.8056V10.3605L8.63867 11.8056H7.19354Z" fill="white"/>
</svg>
