<svg width="32" height="32" viewBox="0 0 32 32" fill="none" xmlns="http://www.w3.org/2000/svg">
<path d="M25.5681 24.26H27.3621C28.1543 24.2577 28.9135 23.9461 29.4737 23.3932C30.0339 22.8404 30.3497 22.0913 30.3521 21.3094V9.5072C30.3497 8.72538 30.0339 7.97625 29.4737 7.42342C28.9135 6.87059 28.1543 6.55898 27.3621 6.55664H4.6384C3.84614 6.55898 3.087 6.87059 2.52679 7.42342C1.96658 7.97625 1.6508 8.72538 1.64844 9.5072V21.3094C1.6508 22.0913 1.96658 22.8404 2.52679 23.3932C3.087 23.9461 3.84614 24.2577 4.6384 24.26H6.43237" stroke="white" stroke-width="1.94958" stroke-linejoin="round"/>
<path d="M23.7495 14.8164H8.24954C7.24554 14.8164 6.43164 15.6196 6.43164 16.6103V28.3654C6.43164 29.3561 7.24554 30.1593 8.24954 30.1593H23.7495C24.7535 30.1593 25.5674 29.3561 25.5674 28.3654V16.6103C25.5674 15.6196 24.7535 14.8164 23.7495 14.8164Z" stroke="white" stroke-width="1.94958" stroke-linejoin="round"/>
<path d="M25.5674 6.55684V4.7865C25.565 4.00468 25.2492 3.25555 24.689 2.70272C24.1288 2.14988 23.3697 1.83827 22.5774 1.83594H9.4216C8.62934 1.83827 7.87021 2.14988 7.30999 2.70272C6.74978 3.25555 6.43401 4.00468 6.43164 4.7865V6.55684" stroke="white" stroke-width="1.94958" stroke-linejoin="round"/>
<path d="M26.1651 12.4567C27.1559 12.4567 27.959 11.6641 27.959 10.6864C27.959 9.70862 27.1559 8.91602 26.1651 8.91602C25.1743 8.91602 24.3711 9.70862 24.3711 10.6864C24.3711 11.6641 25.1743 12.4567 26.1651 12.4567Z" fill="white"/>
</svg>
