<svg width="18" height="18" viewBox="0 0 18 18" fill="none" xmlns="http://www.w3.org/2000/svg">
<path d="M4.19985 0.601562C3.24507 0.601563 2.3294 0.980847 1.65427 1.65598C0.979138 2.33111 0.599854 3.24678 0.599854 4.20156V11.4016C0.599854 12.3563 0.979138 13.272 1.65427 13.9471C2.3294 14.6223 3.24507 15.0016 4.19985 15.0016H11.3999C12.3546 15.0016 13.2703 14.6223 13.9454 13.9471C14.6206 13.272 14.9999 12.3563 14.9999 11.4016V4.20156C14.9999 3.24678 14.6206 2.33111 13.9454 1.65598C13.2703 0.980847 12.3546 0.601563 11.3999 0.601562H4.19985ZM11.7959 4.95036C11.9152 5.0553 11.9881 5.20333 11.9985 5.36194C12.0088 5.52056 11.9558 5.6768 11.8511 5.79636L7.65105 10.5964C7.59701 10.6583 7.53082 10.7084 7.4566 10.7437C7.38238 10.779 7.3017 10.7986 7.21956 10.8015C7.13743 10.8043 7.05559 10.7902 6.97913 10.7601C6.90267 10.7299 6.8332 10.6844 6.77505 10.6264L4.37505 8.22636C4.31927 8.17058 4.27502 8.10435 4.24482 8.03146C4.21463 7.95858 4.19909 7.88046 4.19909 7.80156C4.19909 7.72267 4.21463 7.64455 4.24482 7.57166C4.27502 7.49878 4.31927 7.43255 4.37505 7.37676C4.43084 7.32098 4.49707 7.27673 4.56995 7.24653C4.64284 7.21634 4.72096 7.20081 4.79985 7.20081C4.87875 7.20081 4.95687 7.21634 5.02975 7.24653C5.10264 7.27673 5.16887 7.32098 5.22465 7.37676L7.17105 9.32316L10.9487 5.00676C11.0534 4.88721 11.2014 4.81411 11.36 4.80354C11.5186 4.79297 11.6761 4.84577 11.7959 4.95036ZM3.90345 16.2016C4.56345 16.9384 5.51985 17.4016 6.58665 17.4016H11.9867C13.4188 17.4016 14.7923 16.8326 15.805 15.8199C16.8177 14.8072 17.3867 13.4337 17.3867 12.0016V6.60156C17.3867 5.54076 16.9271 4.58556 16.1975 3.92796V10.2016C16.1975 10.3216 16.1927 10.4416 16.1855 10.5604V12.0004C16.1855 12.5519 16.0768 13.0981 15.8657 13.6076C15.6547 14.1172 15.3453 14.5802 14.9553 14.9702C14.5653 15.3602 14.1023 15.6696 13.5927 15.8807C13.0832 16.0917 12.537 16.2004 11.9855 16.2004H10.2647L10.1975 16.2016H3.90345Z" fill="#99BBFF"/>
</svg>
